<svg viewBox="0 0 64 64" xmlns="http://www.w3.org/2000/svg" role="img" aria-label="GES MARKETİM">
  <rect width="64" height="64" rx="14" fill="#0F2547" />
  <g transform="translate(6 6) scale(0.82)">
    <g stroke="#F5B800" stroke-width="3" stroke-linecap="round">
      <line x1="20" y1="2" x2="20" y2="6" />
      <line x1="32.73" y1="7.27" x2="29.9" y2="10.1" />
      <line x1="38" y1="20" x2="34" y2="20" />
      <line x1="32.73" y1="32.73" x2="29.9" y2="29.9" />
      <line x1="20" y1="38" x2="20" y2="34" />
      <line x1="7.27" y1="32.73" x2="10.1" y2="29.9" />
      <line x1="2" y1="20" x2="6" y2="20" />
      <line x1="7.27" y1="7.27" x2="10.1" y2="10.1" />
    </g>
    <circle cx="20" cy="20" r="7.5" fill="#F5B800" />
    <path d="M32 26 L38 26 L42 36" stroke="#FFFFFF" stroke-width="3" stroke-linecap="round" stroke-linejoin="round" fill="none" />
    <path d="M40 36 L62 36 L58 52 L44 52 Z" fill="#FFFFFF" />
    <circle cx="46" cy="58" r="3" fill="#FFFFFF" />
    <circle cx="56" cy="58" r="3" fill="#FFFFFF" />
  </g>
</svg>
